<?xml version="1.0" encoding="UTF-8"?>
<svg version="1.1" xmlns="http://www.w3.org/2000/svg" width="679" height="718">
<path d="M0 0 C224.07 0 448.14 0 679 0 C679 236.94 679 473.88 679 718 C454.93 718 230.86 718 0 718 C0 481.06 0 244.12 0 0 Z " fill="#FDC421" transform="translate(0,0)"/>
<path d="M0 0 C1.31278734 -0.00322445 2.62557468 -0.00644889 3.97814345 -0.00977105 C5.43863672 -0.00829984 6.89912989 -0.00673212 8.35962296 -0.00507832 C9.90829914 -0.00694597 11.45697485 -0.00924648 13.00564981 -0.01194364 C17.26816462 -0.01807384 21.53065986 -0.01792661 25.79317808 -0.01674926 C30.38771716 -0.01654556 34.9822499 -0.02206112 39.57678604 -0.02680683 C48.58133408 -0.03512087 57.58587557 -0.03786202 66.59042713 -0.03841921 C73.90910544 -0.03889406 81.22778158 -0.04094725 88.5464592 -0.04411983 C109.28921308 -0.05292883 130.03196178 -0.05753888 150.77471754 -0.05678936 C151.89346448 -0.0567494 153.01221141 -0.05670945 154.16485977 -0.05666828 C155.28497044 -0.0566274 156.4050811 -0.05658652 157.55913451 -0.0565444 C175.71149089 -0.05613797 193.86382653 -0.06570622 212.01617691 -0.07980665 C230.64798811 -0.09416547 249.2797892 -0.10107709 267.91160607 -0.10021287 C278.3746721 -0.09988071 288.83771639 -0.10263621 299.30077744 -0.11339092 C308.20983031 -0.12248947 317.11885159 -0.12467652 326.0279071 -0.1178815 C330.57364624 -0.1146129 335.11932474 -0.11457185 339.66505814 -0.12323475 C343.82757227 -0.13108574 347.98997754 -0.12968264 352.15248898 -0.12095062 C353.65721291 -0.11941253 355.16194491 -0.12124341 356.66665933 -0.12681069 C367.28362578 -0.16348611 377.18689523 -0.1116464 385.65802383 7.12863445 C389.97946333 12.60531025 391.78169197 17.28563562 391.7894516 24.27950668 C391.79329274 25.57513599 391.79713389 26.87076531 391.80109143 28.20565611 C391.80031113 29.65199257 391.79943234 31.09832899 391.79846573 32.54466534 C391.80104856 34.07455407 391.80406149 35.60444214 391.80746913 37.13432926 C391.81555234 41.34963391 391.81732944 45.56492154 391.8180666 49.78023303 C391.81991491 54.32234094 391.82746123 58.86443998 391.83420181 63.40654278 C391.84779606 73.34473494 391.85381184 83.28292307 391.85821247 93.22112298 C391.86097362 99.42594536 391.86521079 105.63076618 391.86971664 111.8355875 C391.88191181 129.01213674 391.89220994 146.18868472 391.89559174 163.36523819 C391.8958113 164.46506859 391.89603087 165.56489899 391.89625709 166.69805759 C391.89647537 167.80053935 391.89669364 168.90302111 391.89691854 170.0389114 C391.897362 172.27300203 391.89780857 174.50709266 391.89825821 176.74118328 C391.89847964 177.84937237 391.89870107 178.95756145 391.89892921 180.09933203 C391.90287593 198.04994839 391.92032501 216.00052412 391.94361773 233.95112479 C391.96733457 252.37725188 391.97979378 270.80335859 391.98095965 289.22950119 C391.98187634 299.57640541 391.98762691 309.92325672 392.00577927 320.27014637 C392.02118487 329.08255789 392.02629807 337.89490018 392.01804116 346.7073226 C392.01413601 351.202701 392.01505762 355.69793998 392.02909851 360.1933012 C392.04184571 364.31221083 392.04063274 368.4308764 392.0285078 372.54978573 C392.02655219 374.03640752 392.02962293 375.52304665 392.03835216 377.0096441 C392.14029941 395.55192941 392.14029941 395.55192941 386.47052383 403.00363445 C377.95456418 409.43791508 370.71235733 409.69912836 360.41293716 409.62311077 C358.85398072 409.62628971 357.29502704 409.63121964 355.736081 409.63774359 C351.46353193 409.65054308 347.19136321 409.63845605 342.91883922 409.62221503 C338.30659975 409.60903861 333.69440204 409.61896294 329.08215714 409.62597942 C320.05069512 409.63605633 311.01937972 409.62478868 301.98793592 409.60627882 C291.46761462 409.58549409 280.94732489 409.58565167 270.42698692 409.58662398 C251.65289409 409.58762505 232.87886941 409.56930797 214.10480118 409.54025555 C195.89385104 409.51208917 177.6829609 409.49791369 159.47198868 409.49923992 C157.78999591 409.49935979 157.78999591 409.49935979 156.0740235 409.49948208 C154.95462122 409.49956279 153.83521894 409.4996435 152.68189538 409.49972665 C131.94303209 409.50110731 111.20419425 409.48931956 90.46533922 409.47142022 C83.13517903 409.46539317 75.80502353 409.46326176 68.47486115 409.46235561 C59.53813738 409.46098955 50.60145652 409.45203543 41.66475095 409.43369 C37.1065918 409.42447258 32.5484874 409.41835615 27.9903183 409.42087841 C23.81427784 409.42307712 19.63835824 409.41597926 15.46234296 409.40158136 C13.95501604 409.39797114 12.44767657 409.397678 10.94034924 409.40111594 C-11.19338666 409.44599262 -11.19338666 409.44599262 -18.34197617 403.12863445 C-25.98656216 393.73793132 -25.63562883 382.81169416 -25.60267258 371.25009441 C-25.60569642 369.7431871 -25.60958706 368.23628131 -25.61426514 366.72937822 C-25.62452367 362.6054868 -25.62236882 358.48168253 -25.61808455 354.35778403 C-25.61561347 349.90373125 -25.62463614 345.44969924 -25.63212204 340.99565411 C-25.64485974 332.27686864 -25.64666395 323.55811398 -25.64432178 314.83932078 C-25.64253768 307.75246152 -25.64429022 300.66561161 -25.64854622 293.57875347 C-25.649439 292.06497007 -25.649439 292.06497007 -25.65034982 290.52060518 C-25.65156159 288.47036556 -25.65277572 286.42012595 -25.6539922 284.36988634 C-25.66486383 265.15125718 -25.66270683 245.93264557 -25.65660735 226.71401542 C-25.65143662 209.13492687 -25.66269844 191.55589371 -25.68170557 173.97681612 C-25.7010794 155.92001434 -25.70934089 137.86323877 -25.70558232 119.80642653 C-25.70366983 109.67147562 -25.70616266 99.53657187 -25.72029686 89.40162945 C-25.73220569 80.775246 -25.73362099 72.14893876 -25.72150669 63.52255428 C-25.71561498 59.12244823 -25.71452673 54.72248162 -25.72650909 50.32238483 C-25.73735717 46.29196254 -25.73427741 42.26179627 -25.72024741 38.23138601 C-25.71759756 36.77591919 -25.7199761 35.32043237 -25.72798327 33.86498517 C-25.78575711 22.57724039 -25.03788033 14.18240245 -17.11150742 5.7887907 C-11.80101098 0.80653687 -7.06881677 0.004382 0 0 Z " fill="#1B1A19" transform="translate(156.34197616577148,22.871365547180176)"/>
<path d="M0 0 C3.34327701 0.01984566 6.68561527 0.02299124 10.02887726 0.0167532 C29.38898892 -0.01063492 48.65180757 0.48974059 67.67700195 4.39868164 C68.70212891 4.60855713 69.72725586 4.81843262 70.78344727 5.03466797 C100.03596162 11.37477673 127.66025542 22.85959965 150.55200195 42.33618164 C151.27630905 42.80283234 152.00061615 43.26948303 152.74687195 43.75027466 C156.72595527 46.61715089 159.18343987 48.80127272 160.35301208 53.67205811 C160.61271288 57.85654899 160.59083083 61.95408829 160.46606445 66.14086914 C160.45207503 67.72156868 160.44206844 69.30230778 160.4357605 70.88305664 C160.40768374 75.11815399 160.32423691 79.35048615 160.22988892 83.58455658 C160.14152931 87.97292631 160.10441011 92.36172352 160.06176758 96.75073242 C159.97648513 104.73066007 159.84664372 112.70908518 159.69424057 120.68799019 C159.54464962 128.55058203 159.43125298 136.41344036 159.32355881 144.27669907 C159.12949863 158.29785572 158.8693555 172.31726729 158.55200195 186.33618164 C154.86601877 185.84769736 152.05367736 185.38662819 149.0012207 183.22680664 C148.39028564 182.80455811 147.77935059 182.38230957 147.14990234 181.94726562 C146.51947021 181.49810791 145.88903809 181.0489502 145.23950195 180.58618164 C143.90000974 179.66320425 142.55887372 178.74260771 141.21606445 177.82446289 C140.25941895 177.16824951 140.25941895 177.16824951 139.28344727 176.4987793 C136.62592392 174.71435654 133.87252519 173.1763367 131.0480957 171.67602539 C128.95648077 170.55329625 126.8958345 169.39637961 124.8371582 168.21508789 C123.81223267 167.62932983 123.81223267 167.62932983 122.76660156 167.03173828 C121.42574709 166.26457338 120.08656082 165.49448113 118.74951172 164.72070312 C92.23457733 149.63939557 63.29997472 142.41738396 33.48950195 137.52368164 C32.09447449 137.29367462 32.09447449 137.29367462 30.67126465 137.059021 C13.15821347 134.19890368 -4.02663425 133.07147178 -21.76049805 133.02368164 C-22.69642792 133.02106323 -23.63235779 133.01844482 -24.59664917 133.01574707 C-50.65665002 133.00800042 -76.47561829 135.61418862 -101.5065918 143.14477539 C-102.57256592 143.46406006 -103.63854004 143.78334473 -104.73681641 144.11230469 C-106.81416026 144.74231492 -108.88703288 145.38734696 -110.95410156 146.05029297 C-119.34257524 148.63978139 -127.13122195 149.8379821 -135.44799805 146.33618164 C-133.86959359 129.92077525 -122.17105682 114.37819779 -114.1965332 100.40991211 C-111.27535352 95.27480289 -108.39320882 90.11795473 -105.51049805 84.96118164 C-104.33343131 82.85700569 -103.15634792 80.75283905 -101.97924805 78.64868164 C-101.10333008 77.0824707 -101.10333008 77.0824707 -100.2097168 75.48461914 C-98.46787879 72.37171131 -96.72394314 69.25998892 -94.97924805 66.14868164 C-93.82298303 64.08619006 -92.66673304 62.02369005 -91.51049805 59.96118164 C-90.94000732 58.9439502 -90.3695166 57.92671875 -89.78173828 56.87866211 C-86.6757789 51.33463549 -83.58533317 45.78247193 -80.5144043 40.21899414 C-79.84964655 39.01633687 -79.18485183 37.81370004 -78.52001953 36.61108398 C-77.26738175 34.34503405 -76.01877121 32.07692518 -74.77246094 29.80737305 C-73.02036961 26.63678273 -71.24307314 23.48262707 -69.44799805 20.33618164 C-69.12085815 19.75779541 -68.79371826 19.17940918 -68.45666504 18.58349609 C-67.44562958 16.80938081 -66.41465469 15.04836581 -65.37768555 13.28930664 C-64.4647876 11.72164551 -64.4647876 11.72164551 -63.53344727 10.12231445 C-59.70699086 5.01021887 -56.05366313 3.23556073 -49.84228516 2.30029297 C-47.57651149 2.04658311 -45.30800505 1.81656308 -43.0378418 1.60571289 C-41.8086351 1.48388138 -40.57942841 1.36204987 -39.31297302 1.23652649 C-26.21793659 0.04974545 -13.14278612 -0.08317708 0 0 Z " fill="#1A1919" transform="translate(166.447998046875,470.663818359375)"/>
<path d="M0 0 C0.66204123 -0.00282738 1.32408245 -0.00565475 2.00618553 -0.00856781 C5.51690414 -0.02341202 9.02758331 -0.03273163 12.53833008 -0.03710938 C15.37602778 -0.04146873 18.2134171 -0.05528281 21.05102539 -0.078125 C35.27768745 -0.19013813 49.3994112 -0.13265124 63.5546875 1.53125 C64.55413895 1.64797058 65.55359039 1.76469116 66.58332825 1.88494873 C80.22142595 3.70692387 80.22142595 3.70692387 84.58911133 8.46728516 C85.08564209 9.34175293 85.58217285 10.2162207 86.09375 11.1171875 C86.66303223 12.09848633 87.23231445 13.07978516 87.81884766 14.09082031 C88.65681885 15.63141113 88.65681885 15.63141113 89.51171875 17.203125 C90.06134277 18.19151367 90.6109668 19.17990234 91.17724609 20.19824219 C92.88143007 23.30961959 94.54398496 26.44045786 96.19921875 29.578125 C101.94637359 40.36083841 107.9019827 50.99764408 114.00537109 61.58154297 C116.65491738 66.19269824 119.27117198 70.82262393 121.88671875 75.453125 C122.42506348 76.40614502 122.9634082 77.35916504 123.51806641 78.34106445 C129.26688419 88.52811964 134.97896218 98.73570639 140.68847656 108.94482422 C142.61481201 112.3873621 144.5434249 115.82861585 146.47265625 119.26953125 C147.11726807 120.41953613 147.76187988 121.56954102 148.42602539 122.75439453 C149.66968933 124.97299502 150.91365602 127.19142582 152.15795898 129.40966797 C152.71427002 130.40240723 153.27058105 131.39514648 153.84375 132.41796875 C154.58202026 133.73462524 154.58202026 133.73462524 155.33520508 135.07788086 C157.7682085 139.47283723 157.67168339 142.16423873 157.51171875 147.203125 C156.51171875 148.203125 156.51171875 148.203125 153.32421875 148.453125 C149.43245073 148.40696391 145.85753951 147.71446618 142.0625 146.87109375 C140.82234131 146.59861816 139.58218262 146.32614258 138.30444336 146.04541016 C137.05284424 145.76745605 135.80124512 145.48950195 134.51171875 145.203125 C116.42285038 141.24622559 98.44050775 137.94517378 80.07592773 135.58862305 C77.82904426 135.25083108 75.70797885 134.77146799 73.51171875 134.203125 C33.19606273 128.10009199 -12.94525875 131.00158905 -51.21484375 145.02734375 C-53.88001717 145.98464351 -56.51085993 146.79407973 -59.23046875 147.5703125 C-64.67701992 149.18238114 -69.79940168 151.34510147 -74.98828125 153.640625 C-94.53908226 162.203125 -94.53908226 162.203125 -97.48828125 162.203125 C-97.81828125 163.193125 -98.14828125 164.183125 -98.48828125 165.203125 C-100.71875 166.67578125 -100.71875 166.67578125 -103.67578125 168.265625 C-108.64011054 171.05657568 -113.30567274 174.06170973 -117.92578125 177.390625 C-118.7933606 178.01432983 -118.7933606 178.01432983 -119.6784668 178.65063477 C-122.26184683 180.52635253 -124.77316732 182.44046232 -127.2265625 184.484375 C-129.48828125 186.203125 -129.48828125 186.203125 -132.23828125 186.515625 C-134.48828125 186.203125 -134.48828125 186.203125 -135.48828125 185.203125 C-135.65264581 182.46697302 -135.74952231 179.75488769 -135.8046875 177.015625 C-135.82574051 176.12685165 -135.84679352 175.23807831 -135.8684845 174.32237244 C-135.93675144 171.28272821 -135.99514999 168.24302609 -136.05078125 165.203125 C-136.07029846 164.14932648 -136.08981567 163.09552795 -136.10992432 162.00979614 C-136.2549897 153.83946877 -136.36446121 145.66880499 -136.46099091 137.49777985 C-136.48970357 135.08353227 -136.51955584 132.66930004 -136.54937744 130.25506592 C-136.66980604 120.30305717 -136.76306774 110.35127303 -136.81491184 100.39865685 C-136.83884049 95.81707313 -136.87068823 91.23589788 -136.92288208 86.65454102 C-136.97203289 82.275172 -136.99617251 77.89632888 -137.00217247 73.51669502 C-137.00845513 71.88867096 -137.02328175 70.26065372 -137.0473423 68.63279533 C-137.19174303 58.38226698 -136.39660919 51.14146608 -129.6640625 42.99609375 C-113.74014016 29.27548142 -95.37303345 18.83137573 -75.48828125 12.203125 C-73.82091005 11.53822237 -72.15421512 10.87162076 -70.48828125 10.203125 C-48.09860427 2.04333161 -23.61821416 0.08034863 0 0 Z " fill="#1A1919" transform="translate(490.48828125,470.796875)"/>
<path d="M0 0 C0.95130798 -0.00067474 1.90261597 -0.00134949 2.88275146 -0.00204468 C63.46808783 0.06594591 123.75190995 16.99686166 174.9375 49.6875 C185.26535915 55.88772837 197.51245785 57.18740384 209.171875 54.359375 C221.99249549 49.94397458 233.70397043 42.83684931 245.5 36.25 C253.58337264 31.75923742 261.57013195 27.57427285 270.3046875 24.453125 C272.82217554 23.50521997 275.20654453 22.47995696 277.64453125 21.35546875 C300.83809282 10.93777488 326.47669206 5.98081857 351.51220703 2.65673828 C353.96204672 2.32323338 356.39983571 1.95588698 358.83984375 1.55859375 C380.32296969 -1.61177468 403.33302871 -0.50871918 424.82226562 1.95117188 C427.46785337 2.24641252 430.11460765 2.49337342 432.765625 2.734375 C446.36351073 4.08675163 459.650048 6.78518874 473 9.625 C473.89578766 9.81377716 474.79157532 10.00255432 475.71450806 10.197052 C516.42741407 18.83145507 516.42741407 18.83145507 525.5 32.25 C527.71929908 36.28508924 528.11930108 39.68265452 527.5 44.25 C524.41447858 50.11358876 520.43777067 53.5010321 514.5 56.25 C511.66653959 57.11066703 509.1421504 57.37554055 506.1866312 57.37749195 C505.32628539 57.3804996 504.46593957 57.38350725 503.57952267 57.38660604 C502.63897736 57.38485567 501.69843206 57.38310529 500.72938538 57.38130188 C499.7265026 57.38341759 498.72361982 57.38553331 497.69034666 57.38771313 C494.3196766 57.3937189 490.94904391 57.39271255 487.57836914 57.3918457 C485.16540463 57.39487691 482.75244068 57.39839826 480.33947754 57.40237427 C475.1366635 57.41026814 469.93385389 57.41543064 464.73103523 57.41866493 C456.4981137 57.42416834 448.26523346 57.44107427 440.03233337 57.46000671 C437.21353633 57.4663636 434.39473918 57.47267207 431.57594204 57.47898388 C430.87144647 57.48056764 430.16695091 57.4821514 429.44110699 57.48378316 C421.42159709 57.50171967 413.40208425 57.5179444 405.38256836 57.53295898 C404.28305365 57.53502279 404.28305365 57.53502279 403.16132652 57.53712829 C391.30105585 57.55902586 379.44079584 57.5698066 367.58050854 57.57732973 C355.3908277 57.58541784 343.20123787 57.608765 331.01160902 57.6452834 C323.50132906 57.66724136 315.99123661 57.67699369 308.48092621 57.67078307 C302.71332328 57.66721533 296.9459262 57.68456245 291.17838287 57.70946121 C288.82145364 57.71635674 286.46449307 57.71651731 284.10756493 57.70926094 C267.37469371 57.6629685 254.82391352 58.82818251 240.5 68.1875 C221.85684485 79.85156706 201.50654006 84.77774241 179.47265625 80.6328125 C169.70700706 77.90470778 160.18526815 72.33034827 152.3125 66 C144.79422527 60.11674141 136.10616917 58.65287703 126.79821777 58.75793457 C125.27055479 58.75091609 125.27055479 58.75091609 123.71202993 58.74375582 C120.33054165 58.73290274 116.94981141 58.75025304 113.56835938 58.76757812 C111.13141156 58.76539026 108.69446479 58.76139049 106.25752258 58.75572205 C101.02476016 58.74717832 95.79214789 58.75046047 90.55940247 58.7641449 C82.98192779 58.78358773 75.40463908 58.77703145 67.82715935 58.76357108 C55.51480926 58.74202775 43.20250326 58.73526727 30.89013672 58.74072266 C30.15457957 58.74104329 29.41902243 58.74136392 28.66117567 58.74169427 C23.44078355 58.74406719 18.22039178 58.74697174 13 58.75 C7.03662124 58.75345926 1.07324248 58.75667788 -4.89013672 58.75927734 C-5.62478922 58.75960285 -6.35944173 58.75992837 -7.11635643 58.76026374 C-19.38532915 58.76521346 -31.65424078 58.75449973 -43.92319441 58.73270559 C-51.47774247 58.72004154 -59.03203785 58.7214002 -66.58657205 58.74115646 C-72.37879733 58.75530279 -78.17086287 58.74913162 -83.96308327 58.73565865 C-86.33216062 58.73353172 -88.70125575 58.73822634 -91.07030296 58.7503643 C-94.31326001 58.76603919 -97.55527722 58.75696435 -100.79821777 58.74206543 C-101.72751933 58.75255433 -102.65682088 58.76304322 -103.61428308 58.77384996 C-111.57996277 58.6927854 -118.47796166 56.47495738 -125.4375 52.625 C-129.95167807 47.42685556 -132.46068709 40.31885083 -132.05859375 33.41015625 C-130.65945512 27.99950125 -126.6656767 24.63330952 -122.09277344 21.71240234 C-113.20567087 17.03389372 -104.25060334 15.04171197 -94.5 13.0625 C-92.14319246 12.56810385 -89.78739934 12.06906878 -87.43164062 11.56970215 C-85.8996212 11.24580198 -84.36706889 10.92441163 -82.83398438 10.60559082 C-78.64928453 9.7309463 -74.51025772 8.76547754 -70.375 7.67578125 C-63.84676368 6.00269589 -57.23718855 4.95444299 -50.58203125 3.94238281 C-48.50138651 3.62521136 -46.42257677 3.29760395 -44.34375 2.96875 C-29.52326342 0.65379193 -14.97914423 0.00957144 0 0 Z " fill="#1A191A" transform="translate(142.5,633.75)"/>
<path d="M0 0 C0 49.17 0 98.34 0 149 C-47.85 149 -95.7 149 -145 149 C-146.15029204 89.18481412 -146.15029204 89.18481412 -146.09765625 70.921875 C-146.0957721 68.84385209 -146.09435781 66.76582871 -146.09336853 64.68780518 C-146.08969927 59.43435245 -146.08002102 54.1809312 -146.06866455 48.92749023 C-146.05809665 43.48031032 -146.05379841 38.03312489 -146.04882812 32.5859375 C-146.03836935 22.05727845 -146.02150434 11.52864192 -146 1 C-137.29986862 0.86318923 -128.59966544 0.73288004 -119.89934349 0.60884857 C-115.85000487 0.55095976 -111.80070661 0.49157984 -107.75146484 0.42724609 C-71.82944806 -0.13529108 -35.93463659 0 0 0 Z " fill="#FCC421" transform="translate(506,243)"/>
<path d="M0 0 C48.18 0 96.36 0 146 0 C146 48.51 146 97.02 146 147 C97.82 147 49.64 147 0 147 C0 98.49 0 49.98 0 0 Z " fill="#FEC522" transform="translate(174,245)"/>
<path d="M0 0 C47.85 0 95.7 0 145 0 C145 46.53 145 93.06 145 141 C141.82256362 142.05914546 139.58608213 142.12320043 136.24836731 142.12025452 C135.05192754 142.12163201 133.85548777 142.12300951 132.62279224 142.12442875 C131.3032791 142.12083064 129.98376596 142.11723253 128.62426758 142.11352539 C127.20215451 142.11321909 125.78004128 142.11335248 124.35792828 142.11389065 C120.54585438 142.11411662 116.7338118 142.1083162 112.9217453 142.10128021 C109.34606323 142.09558987 105.77038883 142.09531734 102.19470215 142.09460449 C91.73396394 142.0893549 81.27323158 142.07539378 70.8125 142.0625 C47.444375 142.041875 24.07625 142.02125 0 142 C0 95.14 0 48.28 0 0 Z " fill="#FDC522" transform="translate(360,63)"/>
<path d="M0 0 C47.85 0 95.7 0 145 0 C145 46.53 145 93.06 145 141 C97.15 141 49.3 141 0 141 C0 94.47 0 47.94 0 0 Z " fill="#FDC421" transform="translate(174,64)"/>
<path d="M0 0 C47.52 0 95.04 0 144 0 C144 0.33 144 0.66 144 1 C142.82904785 1.01981934 141.6580957 1.03963867 140.45166016 1.06005859 C136.11663926 1.13600081 131.78195905 1.2247352 127.44726562 1.31738281 C125.56940424 1.35571977 123.69146824 1.39056427 121.81347656 1.421875 C119.11756679 1.46742363 116.42217288 1.52543375 113.7265625 1.5859375 C112.88380768 1.59748871 112.04105286 1.60903992 111.17276001 1.62094116 C106.60979043 1.54193181 106.60979043 1.54193181 103 4 C101.16093254 4.24609566 101.16093254 4.24609566 98.88717651 4.24050903 C98.02797544 4.24326403 97.16877438 4.24601902 96.28353691 4.2488575 C95.33516016 4.24166128 94.38678341 4.23446507 93.40966797 4.22705078 C92.39838396 4.22729185 91.38709995 4.22753292 90.34517097 4.2277813 C87.06075469 4.22628452 83.77656336 4.21103504 80.4921875 4.1953125 C78.46883249 4.1923732 76.44547597 4.19033206 74.42211914 4.18920898 C66.90638962 4.17870859 59.39069262 4.15078634 51.875 4.125 C35.08625 4.08375 18.2975 4.0425 1 4 C1 48.22 1 92.44 1 138 C47.86 138 94.72 138 143 138 C143 138.66 143 139.32 143 140 C95.81 140 48.62 140 0 140 C0 93.8 0 47.6 0 0 Z " fill="#E9B720" transform="translate(361,63)"/>
<path d="M0 0 C0.33 0 0.66 0 1 0 C1 46.2 1 92.4 1 140 C48.19 140 95.38 140 144 140 C143.67 139.01 143.34 138.02 143 137 C142.90932611 135.18584832 142.87804631 133.36849372 142.87974548 131.55207825 C142.87768349 129.85464729 142.87768349 129.85464729 142.87557983 128.1229248 C142.87917511 126.88071167 142.88277039 125.63849854 142.88647461 124.35864258 C142.88632858 123.05122604 142.88618256 121.74380951 142.8860321 120.39677429 C142.88574485 116.81027576 142.89162993 113.22381058 142.89860606 109.6373198 C142.90485161 105.8896999 142.90544435 102.14207926 142.90663147 98.39445496 C142.90974124 91.29718763 142.91794986 84.19993569 142.92798096 77.10267514 C142.93915309 69.02295489 142.94465532 60.94323391 142.94967639 52.86350787 C142.96013276 36.24232815 142.97847385 19.62116962 143 3 C130.46 3 117.92 3 105 3 C105.33 2.34 105.66 1.68 106 1 C118.87 1 131.74 1 145 1 C145 47.2 145 93.4 145 141 C141.82256362 142.05914546 139.58608213 142.12320043 136.24836731 142.12025452 C135.05192754 142.12163201 133.85548777 142.12300951 132.62279224 142.12442875 C131.3032791 142.12083064 129.98376596 142.11723253 128.62426758 142.11352539 C127.20215451 142.11321909 125.78004128 142.11335248 124.35792828 142.11389065 C120.54585438 142.11411662 116.7338118 142.1083162 112.9217453 142.10128021 C109.34606323 142.09558987 105.77038883 142.09531734 102.19470215 142.09460449 C91.73396394 142.0893549 81.27323158 142.07539378 70.8125 142.0625 C47.444375 142.041875 24.07625 142.02125 0 142 C0 95.14 0 48.28 0 0 Z " fill="#FADC20" transform="translate(360,63)"/>
<path d="M0 0 C3.48327478 0.00634425 6.96655087 0.00684594 10.44983053 0.00802541 C17.01535959 0.01110663 23.58087157 0.01927575 30.14639318 0.0293749 C38.37148789 0.04174629 46.5965855 0.04714419 54.82168722 0.05256581 C69.45841921 0.06224384 84.09511403 0.08228594 98.73184347 0.10139394 C98.73184347 38.05139394 98.73184347 76.00139394 98.73184347 115.10139394 C98.07184347 115.10139394 97.41184347 115.10139394 96.73184347 115.10139394 C96.73184347 77.81139394 96.73184347 40.52139394 96.73184347 2.10139394 C50.20184347 2.10139394 3.67184347 2.10139394 -44.26815653 2.10139394 C-44.26815653 4.41139394 -44.26815653 6.72139394 -44.26815653 9.10139394 C-44.59815653 9.10139394 -44.92815653 9.10139394 -45.26815653 9.10139394 C-45.26815653 6.46139394 -45.26815653 3.82139394 -45.26815653 1.10139394 C-30.18034896 -0.01624784 -15.12297558 -0.03229773 0 0 Z " fill="#FCDE22" transform="translate(406.2681565284729,243.89860606193542)"/>
<path d="M0 0 C0.33 0.99 0.66 1.98 1 3 C-2.82517513 5.39073445 -6.59665524 5.55966552 -11 6 C-11 5.34 -11 4.68 -11 4 C-9.73308493 3.32591692 -8.46129251 2.66099503 -7.1875 2 C-6.47980469 1.62875 -5.77210938 1.2575 -5.04296875 0.875 C-3 0 -3 0 0 0 Z " fill="#D6B51E" transform="translate(404,629)"/>
<path d="M0 0 C0 1.32 0 2.64 0 4 C-2.97 4 -5.94 4 -9 4 C-9.33 3.01 -9.66 2.02 -10 1 C-6.56484998 0.37542727 -3.50935186 0 0 0 Z " fill="#29221A" transform="translate(547,472)"/>
</svg>
